<svg xmlns="http://www.w3.org/2000/svg" viewBox="0 0 640 480" role="img" aria-label="Property token illustration">
  <defs>
    <linearGradient id="sky" x1="0%" y1="0%" x2="0%" y2="100%">
      <stop offset="0%" stop-color="#173039"/>
      <stop offset="100%" stop-color="#00b4c9"/>
    </linearGradient>
    <linearGradient id="token" x1="0%" y1="0%" x2="100%" y2="100%">
      <stop offset="0%" stop-color="#00dbe3"/>
      <stop offset="100%" stop-color="#23a2bb"/>
    </linearGradient>
    <filter id="shadow" x="-10%" y="-10%" width="120%" height="120%">
      <feDropShadow dx="0" dy="8" stdDeviation="12" flood-color="#173039" flood-opacity="0.25"/>
    </filter>
  </defs>
  <rect width="640" height="480" fill="url(#sky)" rx="16"/>
  <rect x="80" y="200" width="280" height="220" fill="#ffffff" opacity="0.12" rx="4"/>
  <rect x="120" y="160" width="200" height="260" fill="#ffffff" opacity="0.18" rx="4"/>
  <rect x="160" y="120" width="140" height="300" fill="#ffffff" opacity="0.95" rx="6"/>
  <rect x="175" y="145" width="50" height="40" fill="#173039" opacity="0.15" rx="2"/>
  <rect x="235" y="145" width="50" height="40" fill="#173039" opacity="0.15" rx="2"/>
  <rect x="175" y="200" width="50" height="40" fill="#173039" opacity="0.15" rx="2"/>
  <rect x="235" y="200" width="50" height="40" fill="#173039" opacity="0.15" rx="2"/>
  <rect x="175" y="255" width="50" height="40" fill="#173039" opacity="0.15" rx="2"/>
  <rect x="235" y="255" width="50" height="40" fill="#173039" opacity="0.15" rx="2"/>
  <rect x="195" y="330" width="70" height="90" fill="#00dbe3" opacity="0.5" rx="2"/>
  <circle cx="480" cy="200" r="100" fill="url(#token)" filter="url(#shadow)"/>
  <circle cx="480" cy="200" r="78" fill="none" stroke="#ffffff" stroke-width="3" opacity="0.6"/>
  <text x="480" y="195" text-anchor="middle" fill="#ffffff" font-family="Arial, sans-serif" font-size="22" font-weight="700">eSTOK</text>
  <text x="480" y="222" text-anchor="middle" fill="#ffffff" font-family="Arial, sans-serif" font-size="16" font-weight="600">TOKEN</text>
  <path d="M 400 320 Q 440 280 480 300 Q 520 320 560 280" fill="none" stroke="#00dbe3" stroke-width="3" stroke-dasharray="8 6" opacity="0.8"/>
  <circle cx="320" cy="260" r="8" fill="#00dbe3"/>
  <circle cx="400" cy="300" r="6" fill="#ffffff" opacity="0.8"/>
</svg>
